<?xml version="1.0" encoding="UTF-8" standalone="no"?><!DOCTYPE svg PUBLIC "-//W3C//DTD SVG 1.1//EN" "http://www.w3.org/Graphics/SVG/1.1/DTD/svg11.dtd"><svg width="100%" height="100%" viewBox="0 0 4330 4330" version="1.1" xmlns="http://www.w3.org/2000/svg" xmlns:xlink="http://www.w3.org/1999/xlink" xml:space="preserve" xmlns:serif="http://www.serif.com/" style="fill-rule:evenodd;clip-rule:evenodd;stroke-linejoin:round;stroke-miterlimit:2;"><g id="_247" serif:id="247"><circle cx="2164.583" cy="2164.583" r="2164.583" style="fill:#fff;"/><path id="path1" d="M2007.103,2316.678l-11.208,-5.419c-43.539,-21.053 -691.329,-2.445 -736.941,-14.294c-16.858,-4.379 -36.545,-11.213 -43.75,-15.186c-23.87,-13.164 -44.723,-58.935 -48.122,-105.628c-3.537,-48.584 20.091,-107.721 70.58,-176.648c15.04,-20.532 40.727,-55.612 57.083,-77.956c124.777,-170.455 267.458,-398.8 370.03,-592.187c112.229,-211.596 348.766,-600.368 141.746,-633.515c-109.64,-17.555 -128.857,156.871 -259.8,174.383c-137.889,18.441 -21.174,-471.526 449.174,-468.068c100.332,0.738 313.584,136.867 213.461,417.409c-13.785,38.626 -36.774,83.911 -43.263,103.843c-7.342,22.555 -24.821,62.089 -46.285,104.687c-74.5,147.858 -147.607,264.963 -328.534,526.259c-68.136,98.403 -167.524,246.174 -198.848,295.651c-5.323,8.408 -25.89,35.032 -45.705,59.164c-19.815,24.133 -42.509,53.544 -50.433,65.358c-32.591,48.596 -15.516,54.371 41.008,53.166c27.116,-0.578 465.179,-1.835 505.873,-7.685c12.459,-103.931 21.854,-184.723 24.576,-213.955c0.115,-1.232 0.245,-2.481 0.389,-3.746c0.427,-6.045 0.838,-12.137 1.229,-18.264c2.123,-33.286 4.756,-69.119 7.306,-100.65c-2.135,-19.908 2.285,-68.393 3.569,-90.615c3.332,-57.662 14.292,-61.755 25.138,-96.099c17.86,-56.558 53.312,-94.225 106.17,-112.802c10.14,-3.564 24.107,-9.755 31.038,-13.759c16.352,-9.445 43.15,-17.189 59.484,-17.189c20.83,0 44.712,14.018 58.563,34.375c15.024,22.08 24.243,57.375 24.243,92.819c0,10.812 -1.159,34.159 -1.159,34.159c0,0 -30.843,247.143 -61.652,498.204l11.208,5.419c43.539,21.053 691.329,2.445 736.941,14.294c16.858,4.379 36.545,11.213 43.75,15.186c23.87,13.164 44.723,58.935 48.122,105.628c3.537,48.584 -20.091,107.721 -70.58,176.648c-15.04,20.532 -40.727,55.612 -57.083,77.956c-124.777,170.455 -267.458,398.8 -370.03,592.187c-112.229,211.596 -348.766,600.368 -141.746,633.515c109.64,17.555 128.857,-156.871 259.8,-174.383c137.889,-18.441 21.174,471.526 -449.174,468.068c-100.332,-0.738 -313.584,-136.867 -213.461,-417.409c13.785,-38.626 36.774,-83.911 43.263,-103.843c7.342,-22.555 24.821,-62.089 46.285,-104.687c74.5,-147.858 147.607,-264.963 328.534,-526.259c68.136,-98.403 167.524,-246.174 198.848,-295.651c5.323,-8.408 25.89,-35.032 45.705,-59.164c19.815,-24.133 42.509,-53.544 50.433,-65.358c32.591,-48.596 15.516,-54.371 -41.008,-53.166c-27.116,0.578 -465.179,1.835 -505.873,7.685c-12.459,103.931 -21.854,184.723 -24.576,213.955c-0.115,1.232 -0.245,2.481 -0.389,3.746c-0.427,6.045 -0.838,12.137 -1.229,18.264c-2.123,33.286 -4.756,69.119 -7.306,100.65c2.135,19.908 -2.285,68.393 -3.569,90.615c-3.332,57.662 -14.292,61.755 -25.138,96.099c-17.86,56.558 -53.312,94.225 -106.17,112.802c-10.14,3.564 -24.107,9.755 -31.038,13.759c-16.352,9.445 -43.15,17.189 -59.484,17.189c-20.83,0 -44.712,-14.018 -58.563,-34.375c-15.024,-22.08 -24.243,-57.375 -24.243,-92.819c0,-10.812 1.159,-34.159 1.159,-34.159c0,0 30.843,-247.143 61.652,-498.204Z"/></g></svg>