<?xml version="1.0" encoding="UTF-8" standalone="no"?>
<!-- Created with Inkscape (http://www.inkscape.org/) -->

<svg
   width="210mm"
   height="297mm"
   viewBox="0 0 210 297"
   version="1.1"
   id="svg1"
   xml:space="preserve"
   xmlns="http://www.w3.org/2000/svg"
   xmlns:svg="http://www.w3.org/2000/svg"><defs
     id="defs1" /><g
     id="layer1"><path
       style="fill:#000000"
       d="m 114.18433,290.32994 c -0.96028,-0.17028 -1.92871,-2.04674 -2.36282,-4.57824 -0.66865,-3.89927 0.48425,-8.0346 4.86238,-17.44082 1.46525,-3.14804 3.11356,-7.10446 3.66291,-8.79207 0.62163,-1.90962 2.10153,-5.25687 3.9188,-8.86354 6.30769,-12.51864 12.49737,-22.43352 27.81589,-44.55663 5.76885,-8.33142 14.18371,-20.84277 16.83579,-25.03175 0.45069,-0.71186 2.19205,-2.96602 3.86968,-5.00925 1.67764,-2.04323 3.59913,-4.53337 4.26999,-5.53365 2.75939,-4.11442 1.68847,-5.50285 -3.47203,-4.50136 -2.36425,0.45882 -4.24321,0.50628 -22.79434,0.57569 -11.11974,0.0416 -20.25129,0.10924 -20.29235,0.1503 -0.39608,0.39608 -1.30662,9.63438 -1.96169,19.90315 -0.46501,7.28936 -1.21813,16.02108 -1.39396,16.16155 -0.0303,0.0242 -1.30529,0.7051 -2.83326,1.51305 -7.29184,3.85575 -12.73963,5.16354 -16.65986,3.99936 -1.06321,-0.31574 -1.76828,-0.77696 -2.86634,-1.87502 l -1.45628,-1.45628 0.16649,-3.74737 c 0.0916,-2.06106 0.52809,-6.90253 0.97003,-10.75883 1.1515,-10.04773 1.58741,-15.07519 1.58863,-18.3224 5.9e-4,-1.56435 -0.0287,-2.84463 -0.0651,-2.84507 -0.0364,-4.4e-4 -1.26798,-0.23415 -2.73688,-0.51935 -3.561225,-0.69145 -10.424535,-1.16106 -13.888345,-0.95028 -1.54041,0.0937 -8.32697,0.28101 -15.081251,0.41615 -15.429567,0.30873 -18.487392,0.55123 -43.501341,3.4499 -6.402917,0.74199 -12.362724,1.34899 -13.244016,1.3489 -5.111729,-5.4e-4 -9.7368869,-3.7204 -11.6076499,-9.33567 -1.715141,-5.14815 -0.917262,-10.7188 2.184788,-15.25381 0.568958,-0.83178 1.730941,-2.69757 2.5821839,-4.14619 3.290545,-5.59977 7.618658,-11.08079 13.457159,-17.04183 7.023672,-7.17107 11.826292,-11.17518 28.455659,-23.72447 14.463868,-10.915108 18.987042,-14.579045 25.303442,-20.49672 2.629556,-2.463567 7.367826,-7.705022 10.046446,-11.113342 5.36896,-6.83155 8.43192,-13.571204 8.95785,-19.710616 0.22323,-2.60577 -0.42955,-7.9809 -1.23155,-10.140915 -2.62021,-7.057026 -10.51059,-11.672616 -19.973382,-11.683733 -8.922251,-0.01048 -19.838978,5.722153 -25.854175,13.576647 -2.423381,3.164391 -3.985524,6.03616 -5.858843,10.770619 -2.785793,7.040564 -5.500432,11.323387 -8.644127,13.637644 -4.335605,3.191691 -8.740033,2.482265 -13.729445,-2.211416 -1.624747,-1.528445 -2.305551,-2.406707 -3.079666,-3.972879 -0.939012,-1.89979 -0.993811,-2.150019 -0.993811,-4.538103 0,-1.586462 0.180586,-3.231778 0.485046,-4.419252 1.93101,-7.531437 12.535411,-22.255283 20.681621,-28.715717 7.103085,-5.633174 15.75545,-9.742715 23.944791,-11.372855 4.292655,-0.85448 11.516449,-0.871466 15.742708,-0.03702 1.600733,0.316055 3.684323,0.707903 4.630203,0.870775 9.31388,1.603756 17.918625,8.652625 23.098125,18.92162 1.5414,3.056014 2.04545,4.340945 3.78838,9.657291 1.85813,5.66772 2.49508,8.822172 2.67123,13.229166 0.33965,8.497229 -1.66619,17.220433 -5.99265,26.061458 -5.53336,11.307321 -12.764745,19.376708 -29.518205,32.938938 -17.476441,14.14749 -23.634568,19.93155 -29.323088,27.54191 -0.825478,1.10436 -1.500056,2.17592 -1.499062,2.38125 0.0023,0.47355 1.492876,1.49569 2.965485,2.03352 1.732381,0.63272 8.024792,0.72547 14.459129,0.21315 3.00302,-0.23911 7.484099,-0.48515 9.957953,-0.54676 2.473854,-0.0616 9.200883,-0.22283 14.948963,-0.35827 10.47759,-0.24687 12.379855,-0.41477 15.651145,-1.38141 3.34495,-0.98841 4.06542,-1.42711 4.67648,-2.84756 1.64524,-3.82446 2.46043,-8.13971 3.35761,-17.77373 0.35913,-3.8563 0.8351,-8.19456 1.05772,-9.64057 0.22262,-1.44601 0.51872,-4.60117 0.65799,-7.01146 0.2821,-4.88203 0.55205,-6.63391 1.47032,-9.541717 1.51218,-4.788567 4.51378,-7.977676 8.98903,-9.550602 0.85848,-0.301728 2.04102,-0.825945 2.62789,-1.164927 1.38444,-0.799675 3.65337,-1.455304 5.03635,-1.455304 1.76357,0 3.78559,1.186878 4.95834,2.910417 1.27205,1.869478 2.05254,4.857791 2.05254,7.858686 0,2.336769 -0.57161,5.666397 -1.23992,7.222567 -0.59168,1.37773 -3.73721,27.48635 -4.20772,34.925 l -0.17572,2.77812 1.25431,0.60651 c 3.68629,1.78248 9.40924,2.23871 19.05343,1.51893 4.66176,-0.34793 7.50907,-0.41169 12.17083,-0.27255 5.10395,0.15234 7.21623,0.0878 13.09688,-0.40005 8.97682,-0.74474 14.21138,-0.63935 18.07319,0.36388 1.42729,0.37078 3.09416,0.94939 3.70417,1.28579 2.02102,1.11455 3.78654,4.98985 4.07434,8.94314 0.29946,4.11344 -1.70108,9.12038 -5.97578,14.95618 -1.27335,1.73837 -3.44822,4.70848 -4.83303,6.60025 -10.56442,14.43186 -22.6448,33.76503 -31.3292,50.13854 -9.50205,17.91511 -17.73416,37.97013 -22.59381,55.04292 -1.02311,3.59434 -1.1571,3.88896 -2.20511,4.84862 -2.26151,2.07086 -7.03865,3.95377 -12.22042,4.81668 -2.3917,0.39828 -10.20995,0.71746 -11.58809,0.47308 z"
       id="path1" /></g></svg>
